<?xml version="1.0" encoding="UTF-8"?>
<!--Generator: Apple Native CoreSVG 129-->
<!DOCTYPE svg
PUBLIC "-//W3C//DTD SVG 1.1//EN"
       "http://www.w3.org/Graphics/SVG/1.1/DTD/svg11.dtd">
<svg version="1.1" xmlns="http://www.w3.org/2000/svg" xmlns:xlink="http://www.w3.org/1999/xlink" width="100" height="100">
 <!--glyph: "uni1002A6.medium", point size: 100.000000, font version: "Version 16.0d9e1", template writer version: "8"-->
 <path transform="matrix(1 0 0 1 -10 86)" d="M 25.0977 -14.5996 L 39.5996 -14.5996 C 40.0879 -14.5996 40.4785 -14.4531 40.8203 -14.1602 L 63.7695 6.39648 C 66.1621 8.54492 68.0664 9.57031 70.459 9.57031 C 73.7793 9.57031 76.1719 7.12891 76.1719 3.85742 L 76.1719 -74.0234 C 76.1719 -77.2949 73.7793 -79.9805 70.3613 -79.9805 C 67.9688 -79.9805 66.4062 -78.8574 63.7695 -76.5137 L 40.8203 -56.1523 C 40.4785 -55.8594 40.0879 -55.7129 39.5996 -55.7129 L 25.0977 -55.7129 C 18.1641 -55.7129 14.7461 -52.2461 14.7461 -44.873 L 14.7461 -25.4395 C 14.7461 -18.0664 18.1641 -14.5996 25.0977 -14.5996 Z M 112.646 -0.634766 C 114.502 0.634766 116.846 0.146484 118.213 -1.75781 C 124.609 -10.6445 128.418 -22.8027 128.418 -35.2539 C 128.418 -47.7051 124.707 -59.9609 118.213 -68.75 C 116.797 -70.6543 114.502 -71.1426 112.646 -69.873 C 110.791 -68.6035 110.498 -66.2109 111.963 -64.1113 C 117.432 -56.3965 120.605 -45.9473 120.605 -35.2539 C 120.605 -24.5605 117.334 -14.209 111.963 -6.39648 C 110.547 -4.29688 110.791 -1.9043 112.646 -0.634766 Z M 25.4395 -21.9727 C 23.4863 -21.9727 22.6074 -22.8516 22.6074 -24.8047 L 22.6074 -45.5078 C 22.6074 -47.4121 23.4863 -48.3398 25.4395 -48.3398 L 41.6504 -48.3398 C 43.0176 -48.3398 43.9453 -48.5352 45.1172 -49.6582 L 66.7969 -69.2871 C 67.041 -69.4824 67.2852 -69.6777 67.627 -69.6777 C 68.0176 -69.6777 68.3105 -69.3848 68.3105 -68.9941 L 68.3105 -1.46484 C 68.3105 -1.02539 68.0664 -0.732422 67.627 -0.732422 C 67.334 -0.732422 67.0898 -0.878906 66.7969 -1.17188 L 45.1172 -20.6543 C 43.9453 -21.7285 43.0176 -21.9727 41.6504 -21.9727 Z M 93.1641 -13.8184 C 94.8242 -12.6465 97.168 -12.9883 98.584 -14.9414 C 102.441 -20.0684 104.736 -27.5391 104.736 -35.2539 C 104.736 -42.9688 102.441 -50.3906 98.584 -55.5664 C 97.168 -57.5195 94.8242 -57.8613 93.1641 -56.7383 C 91.0645 -55.2734 90.7715 -52.7832 92.334 -50.6836 C 95.3125 -46.6797 96.875 -41.0645 96.875 -35.2539 C 96.875 -29.4434 95.2637 -23.877 92.334 -19.8242 C 90.8203 -17.6758 91.0645 -15.2832 93.1641 -13.8184 Z" fill="white"/>
</svg>
