<?xml version="1.0" encoding="UTF-8"?>
<!--Generator: Apple Native CoreSVG 129-->
<!DOCTYPE svg
PUBLIC "-//W3C//DTD SVG 1.1//EN"
       "http://www.w3.org/Graphics/SVG/1.1/DTD/svg11.dtd">
<svg version="1.1" xmlns="http://www.w3.org/2000/svg" xmlns:xlink="http://www.w3.org/1999/xlink" width="100" height="100">
 <path transform="matrix(1 0 0 1 -2 83)" d="M 76.1719 -21.1914 L 76.1719 -74.0234 C 76.1719 -77.2949 73.7793 -79.9805 70.3613 -79.9805 C 67.9688 -79.9805 66.4062 -78.8574 63.7695 -76.5137 L 41.1621 -56.4453 L 46.6309 -50.9766 L 66.7969 -69.2871 C 67.041 -69.4824 67.2852 -69.6777 67.627 -69.6777 C 68.0176 -69.6777 68.3105 -69.3848 68.3105 -68.9941 L 68.3105 -29.0527 Z M 90.918 12.9883 C 92.3828 14.4531 94.8242 14.4531 96.2402 12.9883 C 97.6562 11.4746 97.7051 9.13086 96.2402 7.66602 L 12.5977 -75.9277 C 11.1328 -77.3926 8.74023 -77.3926 7.22656 -75.9277 C 5.81055 -74.5117 5.81055 -72.0215 7.22656 -70.6055 Z M 25.0977 -14.5996 L 39.5996 -14.5996 C 40.0879 -14.5996 40.4785 -14.4531 40.8203 -14.1113 L 63.7695 6.39648 C 66.1621 8.54492 68.0664 9.57031 70.459 9.57031 C 72.6074 9.57031 74.4629 8.44727 75.5859 6.25 L 69.8242 0.732422 L 44.873 -20.8984 C 43.7988 -21.8262 43.2129 -21.9727 41.8945 -21.9727 L 25.4395 -21.9727 C 23.5352 -21.9727 22.6074 -22.8516 22.6074 -24.8047 L 22.6074 -46.1426 L 16.748 -52.3926 C 15.3809 -50.4395 14.7461 -47.9004 14.7461 -44.7266 L 14.7461 -25.4395 C 14.7461 -18.0664 18.1641 -14.5996 25.0977 -14.5996 Z" fill="white"/>
</svg>
